PathFileType	4	(X/Y/Z)	s04c0103.trc
DataRate	CameraRate	NumFrames	NumMarkers	Units	OrigDataRate	OrigDataStartFrame	OrigNumFrames
200	200	4	50	mm	200	250	2000
Frame#	Time	racr			lacr			c7			jug			rlel			rdr			llel			ldr			s2			lic			ric			lasi			rasi			rpsi			lpsi			rgt			lgt			rth1			rth2			rth3			rth4			rlfc			rmfc			rsh1			rsh2			rsh3			rsh4			rlmal			rmmal			rcal			rtoe			rmt5			lth1			lth2			lth4			lth3			llfc			lmfc			lsh1			lsh2			lsh3			lsh4			llmal			lmmal			lcal			ltoe			lmt5			SBIKE			LBIKE			RBIKE			
		X1	Y1	Z1	X2	Y2	Z2	X3	Y3	Z3	X4	Y4	Z4	X5	Y5	Z5	X6	Y6	Z6	X7	Y7	Z7	X8	Y8	Z8	X9	Y9	Z9	X10	Y10	Z10	X11	Y11	Z11	X12	Y12	Z12	X13	Y13	Z13	X14	Y14	Z14	X15	Y15	Z15	X16	Y16	Z16	X17	Y17	Z17	X18	Y18	Z18	X19	Y19	Z19	X20	Y20	Z20	X21	Y21	Z21	X22	Y22	Z22	X23	Y23	Z23	X24	Y24	Z24	X25	Y25	Z25	X26	Y26	Z26	X27	Y27	Z27	X28	Y28	Z28	X29	Y29	Z29	X30	Y30	Z30	X31	Y31	Z31	X32	Y32	Z32	X33	Y33	Z33	X34	Y34	Z34	X35	Y35	Z35	X36	Y36	Z36	X37	Y37	Z37	X38	Y38	Z38	X39	Y39	Z39	X40	Y40	Z40	X41	Y41	Z41	X42	Y42	Z42	X43	Y43	Z43	X44	Y44	Z44	X45	Y45	Z45	X46	Y46	Z46	X47	Y47	Z47	X48	Y48	Z48	X49	Y49	Z49	X50	Y50	Z50	
250	1.2500	500.636159	1435.140944	-155.383521	516.815087	1415.332018	-428.774765	492.894552	1457.833230	-303.262856	489.929079	1309.962886	-291.685893	504.614489	1126.295485	-43.366831	693.776332	905.983006	-121.100767	502.759565	1131.665035	-536.495369	693.374122	906.464716	-471.131977	-58.635243	1180.120707	-293.998557	100.763512	1178.702495	-441.251903	105.478063	1165.627113	-129.040618	0.000000	0.000000	-0.000000	141.578761	1105.742874	-169.907644	-21.909279	1217.126209	-247.294723	-26.567741	1226.103300	-322.096941	45.955091	1103.630948	-115.459095	60.237589	1120.131469	-487.371187	124.434887	954.671918	-96.592802	178.012041	885.424630	-109.991170	192.946022	801.325732	-117.236630	206.426079	900.856291	-129.305198	236.275277	664.947354	-146.500510	203.862941	646.391110	-255.752942	172.941475	556.025629	-115.088467	154.985713	466.698201	-126.414225	95.083984	404.166062	-127.122110	181.692371	456.243682	-152.859231	39.018977	261.072745	-130.397843	55.214348	264.928255	-217.751616	-36.134970	231.378327	-168.715427	261.704471	191.045528	-162.742509	193.660100	173.276888	-106.607475	122.071452	1069.921693	-492.244337	207.969997	1062.272845	-495.132491	220.569767	1092.552752	-477.805350	280.720809	1011.430131	-506.166777	418.523090	928.525449	-485.423841	454.206703	910.522258	-376.643664	375.770710	822.003768	-501.450691	349.970729	742.047047	-476.078397	285.525155	681.198894	-468.967087	374.651106	732.810304	-447.129147	202.655893	562.475801	-450.671457	202.448824	569.953867	-362.563182	119.676265	549.444781	-404.792937	417.055620	501.755118	-421.264324	340.644293	472.330039	-479.743393	-185.228460	930.669105	-287.373696	-17.441992	79.203084	-485.596250	-17.448216	79.249617	-84.848712	
251	1.2550	500.637679	1435.123094	-155.385585	516.843354	1415.323312	-428.741277	492.933987	1457.807051	-303.239780	489.926403	1309.933620	-291.638126	504.661502	1126.307505	-43.326226	693.772662	905.981399	-121.111409	502.771254	1131.668951	-536.467307	693.395471	906.483107	-471.135015	-58.654957	1180.120918	-294.010197	100.793654	1178.699982	-441.248079	105.445689	1165.610231	-129.016080	0.000000	0.000000	-0.000000	141.589242	1105.732565	-169.893568	-21.914416	1217.101765	-247.278795	-26.587443	1226.099879	-322.088076	45.932023	1103.616811	-115.439171	60.229257	1120.126652	-487.366329	124.401579	954.658859	-96.560829	178.017110	885.378439	-109.967508	192.933737	801.302152	-117.233604	206.394302	900.925895	-129.226083	236.268749	664.938446	-146.486658	203.849080	646.392215	-255.752475	172.939389	556.019111	-115.096586	154.968051	466.694816	-126.409549	95.074775	404.142819	-127.123506	181.723232	456.254184	-152.852152	39.042646	261.040087	-130.402692	55.205875	264.911281	-217.752117	-36.114317	231.349462	-168.721872	261.718743	191.056761	-162.727505	193.690828	173.280161	-106.601180	122.053363	1069.910569	-492.236392	207.954388	1062.268808	-495.142178	220.551129	1092.556263	-477.807509	280.704958	1011.420792	-506.180478	418.524619	928.533291	-485.435349	454.224991	910.533418	-376.662576	375.762496	822.030703	-501.472002	349.955773	742.046449	-476.100211	285.514875	681.206141	-468.977387	374.632723	732.829196	-447.135855	202.641752	562.485275	-450.661369	202.442453	569.984105	-362.565875	119.655293	549.464700	-404.782240	417.035576	501.763428	-421.268185	340.614649	472.326977	-479.735035	-185.225052	930.654493	-287.361874	-17.448826	79.208271	-485.577525	-17.449626	79.234631	-84.854523	
252	1.2600	500.632019	1435.092794	-155.351144	516.874194	1415.322853	-428.711761	492.937687	1457.784829	-303.203744	489.946166	1309.930090	-291.628275	504.642131	1126.268746	-43.312696	693.784965	906.002098	-121.083483	502.761676	1131.651948	-536.406220	693.392407	906.486786	-471.129204	-58.656695	1180.109687	-294.001110	100.771077	1178.676759	-441.232146	105.431718	1165.625019	-128.987443	0.000000	0.000000	-0.000000	141.564139	1105.709271	-169.873728	-21.940098	1217.072586	-247.260921	-26.587403	1226.099996	-322.088414	45.930809	1103.611026	-115.433630	60.226684	1120.115688	-487.355512	124.395135	954.622852	-96.555998	178.001985	885.376786	-109.949670	192.917751	801.289193	-117.216879	206.393275	900.865956	-129.267233	236.244709	664.935276	-146.495455	203.832563	646.385682	-255.757141	172.920071	556.018361	-115.097935	154.979173	466.677751	-126.430407	95.107538	404.126603	-127.124383	181.707333	456.244204	-152.847645	39.054465	261.011870	-130.404109	55.238224	264.880777	-217.764714	-36.076333	231.309341	-168.718917	261.754446	191.029601	-162.742275	193.702468	173.273056	-106.600792	122.040018	1069.914769	-492.241798	207.945961	1062.271479	-495.143281	220.557819	1092.564118	-477.804359	280.699794	1011.421875	-506.195273	418.519501	928.537409	-485.455926	454.215060	910.540542	-376.704793	375.740109	822.039268	-501.506942	349.951640	742.074648	-476.122941	285.490532	681.232081	-468.986519	374.628498	732.832595	-447.150952	202.621280	562.509165	-450.668572	202.404763	570.036829	-362.580259	119.631164	549.495883	-404.787236	416.999401	501.765863	-421.275496	340.591348	472.350509	-479.743983	-185.223323	930.655198	-287.368529	-17.450256	79.221867	-485.590581	-17.439539	79.229222	-84.846516	
253	1.2650	500.633714	1435.059655	-155.328208	516.878598	1415.308639	-428.661166	492.947812	1457.765079	-303.174585	489.945574	1309.874382	-291.613312	504.602182	1126.257043	-43.293306	693.772989	905.992424	-121.085751	502.751644	1131.643385	-536.371218	693.385257	906.489858	-471.123174	-58.680084	1180.100793	-293.990690	100.762565	1178.670227	-441.218558	105.396674	1165.596465	-128.977594	0.000000	0.000000	-0.000000	141.568167	1105.724372	-169.821760	-21.966441	1217.077275	-247.257115	-26.615707	1226.092176	-322.061681	45.919990	1103.587229	-115.414934	60.222751	1120.098169	-487.342063	124.395836	954.632220	-96.535549	177.984021	885.347647	-109.942434	192.885323	801.279358	-117.217532	206.354219	900.907812	-129.209151	236.244018	664.933425	-146.506020	203.831946	646.383938	-255.755252	172.926646	556.007557	-115.116180	154.987897	466.661706	-126.429913	95.106719	404.105465	-127.137251	181.716347	456.221622	-152.847591	39.093831	260.976306	-130.400340	55.283638	264.861981	-217.764477	-36.042108	231.294788	-168.729997	261.778148	191.026349	-162.734482	193.748120	173.247219	-106.606779	122.033368	1069.913363	-492.237433	207.946940	1062.273284	-495.127059	220.536230	1092.568735	-477.815057	280.688997	1011.443558	-506.207767	418.508682	928.558825	-485.483804	454.201672	910.550436	-376.718030	375.736946	822.059961	-501.520410	349.939721	742.085204	-476.127711	285.480182	681.240094	-469.003362	374.630519	732.847292	-447.179147	202.603158	562.542257	-450.658685	202.377486	570.045095	-362.578290	119.605742	549.537862	-404.792765	416.973217	501.781748	-421.274364	340.560589	472.360391	-479.748896	-185.225156	930.661479	-287.378056	-17.448104	79.207540	-485.580254	-17.438495	79.231029	-84.836938	
